<svg xmlns="http://www.w3.org/2000/svg" width="160" height="48" viewBox="0 0 160 48" fill="none">
<rect x="0.5" y="0.5" width="159" height="47" rx="12" stroke="#9C8FFB"/>
<path d="M45 24c0-5.3 4-9.2 9.7-9.2 3 0 5.6 1.1 7.3 3.1l-2.1 2c-1.2-1.3-2.7-2-5-2-3.9 0-6.7 2.6-6.7 6.1 0 3.6 2.8 6.1 6.7 6.1 2.3 0 3.8-.7 5-2l2.1 2c-1.7 2-4.3 3.2-7.4 3.2C49 33.2 45 29.2 45 24z" fill="#372689"/>
<path d="M68 15h3.1v13.6H68V15z" fill="#372689"/>
<path d="M77 15h11.2c3.3 0 5.3 1.7 5.3 4.4 0 1.8-.9 3.2-2.5 3.8 2 0.6 3.2 2.1 3.2 4.2 0 3-2.2 4.8-5.8 4.8H77V15zm10.6 5.6c1.7 0 2.7-.6 2.7-1.9 0-1.2-1-1.9-2.7-1.9h-7.5v3.8h7.5zm.4 6.2c2 0 3.1-.7 3.1-2.1 0-1.4-1.1-2.1-3.1-2.1h-7.9V26h7.9z" fill="#00C49A"/>
</svg>