<svg xmlns="http://www.w3.org/2000/svg" width="160" height="48" viewBox="0 0 160 48" fill="none">
<rect x="0.5" y="0.5" width="159" height="47" rx="12" stroke="#9C8FFB"/>
<path d="M44 15h9.2c4.7 0 7.8 2.6 7.8 6.7 0 4.2-3.1 6.8-7.8 6.8H44V15zm9 11c2.9 0 4.7-1.5 4.7-4.3 0-2.7-1.8-4.2-4.7-4.2h-5.8v8.5H53z" fill="#372689"/>
<path d="M68 15h14v2.6H71.1v3.3h9.9v2.6h-9.9V26H82v2.6H68V15z" fill="#372689"/>
<path d="M88 15h3.1v13.6H88V15z" fill="#372689"/>
<path d="M97 15h3.1v11h10.9v2.6H97V15z" fill="#372689"/>
<path d="M118 23.3 111.5 15h3.8l4.2 5.6 4.2-5.6h3.7l-6.4 8.3v5.3H118v-5.3z" fill="#00C49A"/>
</svg>