<svg xmlns="http://www.w3.org/2000/svg" width="160" height="48" viewBox="0 0 160 48" fill="none">
<rect x="0.5" y="0.5" width="159" height="47" rx="12" stroke="#9C8FFB"/>
<path d="M47 15h3.4l4.7 10.9L59.8 15H63l-6 13.6h-3.1L47 15z" fill="#00C49A"/>
<path d="M67 24c0-4 3.1-6.9 7.4-6.9 4.3 0 7.4 2.9 7.4 6.9s-3.1 6.9-7.4 6.9c-4.3 0-7.4-2.9-7.4-6.9zm11.7 0c0-2.5-1.8-4.3-4.3-4.3-2.5 0-4.3 1.8-4.3 4.3s1.8 4.3 4.3 4.3c2.5 0 4.3-1.8 4.3-4.3z" fill="#372689"/>
<path d="M88 17.3h3.1v8c0 1.9 1.1 3 3.3 3s3.3-1.1 3.3-3v-8H104v8.1c0 3.5-2.4 5.6-6.4 5.6s-6.4-2.1-6.4-5.6v-8.1z" fill="#372689"/>
<path d="M110 17.3h3.1v13.6H110V17.3z" fill="#372689"/>
</svg>